<svg version="1.1" id="Layer_1" xmlns="http://www.w3.org/2000/svg" xmlns:xlink="http://www.w3.org/1999/xlink" x="0px" y="0px"
	 width="100%" viewBox="0 0 2300 2000" enable-background="new 0 0 2300 2000" xml:space="preserve">
<path fill="#61D9FA" opacity="1.000000" stroke="none" 
	d="
M1544.000000,2.000000 
	C1580.041748,2.000000 1616.083618,2.000000 1652.452393,2.629343 
	C1656.107056,4.540199 1659.344238,6.177773 1662.776123,7.048606 
	C1700.092773,16.517651 1732.288574,35.026672 1759.517334,62.098663 
	C1789.129150,91.539757 1808.528076,127.185600 1822.224976,166.289673 
	C1840.213623,217.646225 1845.720093,270.990662 1847.529419,324.876160 
	C1848.018921,339.451569 1846.562622,354.082153 1846.391846,368.691986 
	C1846.019043,400.601135 1842.469482,432.212006 1838.441650,463.820618 
	C1832.899292,507.314606 1824.605957,550.278259 1814.818481,592.981750 
	C1812.400024,603.533508 1809.965454,614.081604 1807.515015,624.733337 
	C1810.643433,625.891968 1812.768799,626.769104 1814.949951,627.473267 
	C1846.548096,637.675110 1878.418701,647.105774 1909.703491,658.190552 
	C1979.141724,682.793579 2045.843506,713.311462 2107.965576,753.267822 
	C2138.536621,772.930786 2167.188232,795.119995 2193.032959,820.651733 
	C2211.984375,839.374023 2228.604248,860.169189 2242.656006,882.925354 
	C2262.179199,914.542603 2274.575195,948.733704 2277.437500,985.766418 
	C2280.138916,1020.716370 2274.336914,1054.624023 2260.676270,1087.094727 
	C2244.672363,1125.135498 2220.153809,1157.282837 2191.221680,1186.098145 
	C2168.095215,1209.131348 2142.286133,1229.124146 2115.075195,1247.142578 
	C2073.384033,1274.749268 2029.151245,1297.728027 1983.371216,1317.731934 
	C1928.185669,1341.845581 1871.347656,1361.349121 1813.532959,1378.093018 
	C1811.447876,1378.696777 1809.557861,1379.974365 1807.515015,1380.967896 
	C1810.510742,1393.541870 1813.535522,1405.445679 1816.169189,1417.435425 
	C1825.280273,1458.913086 1833.062500,1500.604980 1838.711426,1542.739014 
	C1843.656006,1579.618286 1846.106934,1616.631470 1847.512451,1653.734497 
	C1848.039185,1667.638062 1846.455933,1681.608276 1846.413330,1695.549805 
	C1846.339233,1719.860229 1843.556030,1743.902588 1839.747437,1767.832764 
	C1832.750854,1811.794067 1820.235596,1854.026855 1797.812866,1892.759888 
	C1772.942749,1935.720337 1738.644775,1968.624512 1692.375977,1987.919067 
	C1682.300293,1992.120605 1671.611938,1994.850220 1661.216553,1998.289917 
	C1659.456055,1998.872314 1656.385620,1998.442139 1658.000000,2002.000000 
	C1619.291504,2002.000000 1580.583130,2002.000000 1541.545044,2001.350098 
	C1539.487061,1999.832275 1537.847412,1998.547119 1536.017090,1998.157471 
	C1484.794556,1987.257080 1437.393188,1966.667603 1391.856934,1941.368286 
	C1349.891113,1918.052490 1310.428711,1890.959961 1272.568237,1861.521973 
	C1239.226074,1835.597046 1207.107910,1808.222412 1176.520630,1779.072632 
	C1168.906006,1771.815796 1161.130493,1764.728027 1153.852051,1757.956177 
	C1131.489258,1778.163940 1110.041870,1798.059814 1088.039429,1817.321411 
	C1039.902466,1859.461914 988.951782,1897.846436 933.885986,1930.567749 
	C884.495422,1959.916748 832.834106,1983.960938 776.535767,1996.983521 
	C773.639038,1997.653564 770.744202,1998.355957 767.917114,1999.258423 
	C767.677490,1999.334717 767.960022,2001.047485 768.000000,2002.000000 
	C728.624878,2002.000000 689.249756,2002.000000 649.641602,2001.429932 
	C647.125671,1999.779907 644.943848,1998.330322 642.544983,1997.674683 
	C603.048401,1986.879883 569.178955,1966.617554 541.344604,1936.674194 
	C514.646423,1907.953003 496.749451,1873.994263 484.180206,1837.080322 
	C467.209381,1787.239258 460.934998,1735.648682 459.743683,1683.332275 
	C458.850311,1644.103027 461.200195,1605.014526 465.512085,1565.980957 
	C471.386658,1512.801147 480.894379,1460.310303 493.069092,1408.258301 
	C495.231049,1399.014771 497.349792,1389.761353 499.535675,1380.308350 
	C495.714355,1378.917603 492.669373,1377.578247 489.497955,1376.690430 
	C452.045776,1366.204346 415.190430,1353.904053 378.841553,1340.102661 
	C309.318634,1313.705078 242.353821,1282.212036 181.114822,1239.545532 
	C143.560089,1213.380249 109.170021,1183.726196 81.465790,1146.936279 
	C48.140182,1102.681274 28.053890,1054.032227 29.432438,997.439758 
	C30.209490,965.540100 37.726032,935.687500 51.261494,907.167053 
	C70.098289,867.476196 97.774254,834.437683 130.253479,805.376099 
	C168.625427,771.041931 211.574585,743.247803 257.042664,719.304260 
	C329.072296,681.373413 404.886810,652.979614 482.884003,630.131592 
	C488.494507,628.488037 494.028442,626.583130 499.693115,624.769348 
	C488.066223,577.406982 477.554718,530.791504 471.452301,483.368683 
	C467.055939,449.204102 462.909332,414.939331 460.651489,380.587799 
	C458.625916,349.770111 458.206726,318.740082 461.709991,287.901703 
	C464.290619,265.184723 466.259125,242.313232 470.494141,219.887085 
	C478.951752,175.100708 494.127899,132.715332 520.270386,94.832230 
	C545.091431,58.864143 577.129456,31.757017 618.073669,15.846259 
	C628.256836,11.889099 638.899292,9.112623 649.334839,5.806926 
	C651.218872,5.210132 654.136536,5.389442 652.000000,2.000000 
	C688.041809,2.000000 724.083557,2.000000 760.359009,2.609119 
	C764.551392,4.472499 768.442627,6.026403 772.479126,6.935511 
	C822.830688,18.275808 869.808350,38.172852 914.645996,63.318810 
	C993.123901,107.331062 1063.014526,162.831848 1128.577393,224.061722 
	C1136.796143,231.737335 1144.957520,239.474350 1153.370850,247.395096 
	C1155.093506,245.936981 1156.640991,244.716354 1158.089355,243.387772 
	C1178.659790,224.519714 1198.845459,205.212494 1219.852783,186.844650 
	C1266.235962,146.289383 1315.331787,109.327553 1368.120239,77.408867 
	C1412.370239,50.652996 1458.535767,28.097818 1508.432739,13.844724 
	C1519.269775,10.749108 1530.317139,8.389594 1541.266968,5.688066 
	C1543.188843,5.213882 1546.085571,5.449407 1544.000000,2.000000 
M820.092773,1342.936035 
	C820.298401,1342.335327 820.503967,1341.734619 820.279114,1339.844482 
	C774.824097,1268.486816 732.729492,1195.171265 692.832336,1118.874756 
	C666.267395,1182.018311 643.035950,1244.451538 622.855225,1308.908325 
	C634.366211,1311.404785 644.625427,1313.969482 655.011536,1315.822510 
	C696.472717,1323.220337 737.939026,1330.602783 779.479370,1337.535889 
	C792.845093,1339.766724 806.444397,1340.598389 820.092773,1342.936035 
M866.880005,777.920715 
	C823.099670,850.964844 782.293823,925.608704 745.718445,1001.698669 
	C746.162720,1003.315247 746.234985,1004.002502 746.526611,1004.578674 
	C761.545715,1034.254150 776.346069,1064.043457 791.669128,1093.561279 
	C822.790527,1153.512451 856.765320,1211.845215 892.766296,1268.981567 
	C909.972046,1296.288452 927.935120,1323.118774 945.635925,1350.112061 
	C947.356323,1352.735718 948.301575,1356.255859 952.637756,1356.377319 
	C957.590210,1356.515869 962.519043,1357.345581 967.472107,1357.640869 
	C990.661865,1359.023926 1013.846191,1360.554810 1037.052124,1361.591309 
	C1058.967163,1362.569946 1080.906860,1363.550659 1102.835571,1363.545776 
	C1141.445801,1363.537109 1180.058105,1362.920166 1218.664917,1362.276733 
	C1239.265869,1361.933350 1259.863892,1361.166138 1280.450684,1360.293823 
	C1305.973999,1359.212402 1331.484131,1357.824097 1356.416748,1356.596802 
	C1357.692871,1355.177246 1358.443726,1354.515625 1358.986450,1353.713501 
	C1393.108154,1303.264404 1426.122314,1252.101440 1456.435425,1199.264771 
	C1477.609131,1162.358398 1498.467651,1125.255615 1518.629150,1087.789673 
	C1532.651855,1061.731689 1545.140015,1034.851074 1558.599854,1008.484131 
	C1560.819214,1004.136292 1560.812622,1000.848877 1558.581055,996.548950 
	C1537.751221,956.413269 1517.834473,915.788147 1496.314087,876.029663 
	C1458.770264,806.668335 1417.950806,739.230408 1373.967529,673.734375 
	C1368.255615,665.228699 1362.578857,656.699341 1357.361572,648.892761 
	C1334.708374,647.321899 1313.214111,645.335693 1291.674561,644.453674 
	C1259.113770,643.120483 1226.521362,641.837219 1193.942383,641.837036 
	C1146.681885,641.836792 1099.411133,642.597046 1052.164429,643.805298 
	C1019.634949,644.637207 987.143555,646.893066 954.622559,648.200439 
	C950.103394,648.382080 948.157166,650.768860 946.157410,653.901062 
	C920.016602,694.844727 893.868286,735.783630 866.880005,777.920715 
M746.598083,1432.355713 
	C696.429321,1423.479614 646.260620,1414.603516 595.489746,1405.620850 
	C593.773926,1412.473145 591.855957,1419.798828 590.108948,1427.164917 
	C580.227722,1468.829102 571.598267,1510.779907 566.568420,1553.294434 
	C562.754272,1585.533203 560.407288,1617.982422 558.581116,1650.404053 
	C557.631287,1667.266113 559.302673,1684.269775 559.646179,1701.212280 
	C560.112000,1724.189453 563.220825,1746.857544 568.006958,1769.269165 
	C574.575562,1800.027344 584.581360,1829.503662 602.896851,1855.533569 
	C624.985474,1886.926147 655.478394,1903.630371 693.573303,1906.233643 
	C718.684265,1907.949463 743.300781,1904.291382 767.444763,1897.401367 
	C804.742920,1886.757568 839.711426,1870.686646 873.192139,1851.323242 
	C949.982605,1806.911865 1017.671692,1750.773804 1081.179321,1689.293457 
	C1082.264893,1688.242432 1082.966431,1686.794800 1083.088989,1686.619141 
	C1052.134521,1650.206787 1020.919312,1615.222412 991.697998,1578.645264 
	C959.962036,1538.920410 930.047546,1497.739014 899.444153,1457.113403 
	C896.535706,1453.252441 893.807617,1450.391113 888.410400,1449.864380 
	C863.679016,1447.450562 838.964966,1444.792480 814.304321,1441.740234 
	C792.278076,1439.014038 770.329773,1435.656982 746.598083,1432.355713 
M594.107910,163.235916 
	C589.999695,171.938461 585.447754,180.462296 581.859192,189.374069 
	C565.119873,230.944534 560.207764,274.768250 558.526367,319.016663 
	C557.833496,337.250397 558.870300,355.580536 559.766357,373.835114 
	C560.627747,391.382507 562.034119,408.916595 563.706970,426.408173 
	C568.962524,481.361786 579.897888,535.317627 592.799133,588.911438 
	C593.699768,592.653015 594.831970,596.338806 595.908386,600.238586 
	C598.034546,600.024536 599.341431,600.004944 600.600403,599.749451 
	C620.763855,595.656921 640.897156,591.412109 661.084167,587.440308 
	C735.002075,572.896790 809.500366,562.395630 884.532043,555.684082 
	C891.494568,555.061279 897.122681,553.050354 900.588074,546.163757 
	C902.951294,541.467346 906.620300,537.422241 909.749146,533.117615 
	C948.859924,479.308899 989.546753,426.736298 1033.093140,376.423370 
	C1049.807739,357.111694 1066.789673,338.031281 1084.221069,318.195618 
	C1072.551025,307.378052 1060.851807,296.545929 1049.166382,285.698944 
	C1014.765747,253.766693 978.469116,224.144226 940.274597,196.878998 
	C895.470581,164.895721 848.574585,136.589081 796.758301,117.249474 
	C764.803345,105.322807 732.071228,96.953728 697.591187,98.398369 
	C678.479858,99.199104 660.304443,103.752327 643.285217,112.941681 
	C622.076355,124.393204 606.895630,141.593826 594.107910,163.235916 
M1578.922974,99.697632 
	C1537.796631,104.724266 1499.814575,119.506561 1463.135742,137.841125 
	C1425.279663,156.764221 1389.837402,179.685577 1355.761597,204.769974 
	C1319.592773,231.395035 1285.334717,260.314301 1252.125854,290.496918 
	C1242.117676,299.593018 1232.564941,309.190125 1222.852905,318.510468 
	C1235.876709,333.206940 1248.236816,347.095123 1260.532837,361.039917 
	C1312.453003,419.922089 1360.568726,481.818756 1406.064453,545.749817 
	C1410.848511,552.472290 1416.110352,555.679260 1423.929321,555.684814 
	C1425.920044,555.686218 1427.924072,555.803650 1429.899048,556.051941 
	C1470.979736,561.218323 1512.183472,565.583008 1553.100586,571.826355 
	C1596.025513,578.376221 1638.685059,586.676208 1681.437012,594.341797 
	C1691.156372,596.084473 1700.779419,598.364136 1711.220093,600.559204 
	C1713.968384,589.300415 1716.697510,578.757324 1719.107788,568.141785 
	C1733.887329,503.046051 1745.036255,437.427307 1747.712402,370.567902 
	C1749.323608,330.311920 1748.667847,290.184692 1741.800659,250.363907 
	C1736.465088,219.425278 1727.928833,189.526382 1712.213257,162.066254 
	C1700.948730,142.383377 1686.345581,125.812233 1666.458252,114.438103 
	C1639.702759,99.135773 1610.813477,95.839958 1578.922974,99.697632 
M1270.250610,1730.776489 
	C1304.111694,1760.788574 1339.285034,1789.145508 1376.459351,1814.978149 
	C1418.367798,1844.100464 1462.212891,1869.738525 1510.139160,1887.722656 
	C1542.060669,1899.701172 1574.795532,1907.899780 1609.359741,1906.378540 
	C1636.413574,1905.187744 1660.785278,1897.194336 1681.820923,1879.701904 
	C1701.539185,1863.305054 1714.317505,1842.173828 1723.896240,1818.840332 
	C1741.178589,1776.741089 1746.935669,1732.411255 1748.206665,1687.405640 
	C1749.314453,1648.183838 1747.195801,1609.085571 1742.509644,1570.059570 
	C1736.368774,1518.915405 1727.013062,1468.428833 1714.580688,1418.476562 
	C1713.412720,1413.783569 1712.219849,1409.096680 1711.165649,1404.911499 
	C1679.690430,1410.935425 1649.432983,1416.811157 1619.141602,1422.506470 
	C1553.288208,1434.888428 1486.903442,1443.432007 1420.214966,1449.711792 
	C1414.969116,1450.205811 1411.247681,1451.879517 1407.921753,1456.516602 
	C1390.869751,1480.290527 1373.623901,1503.938110 1355.907593,1527.220215 
	C1320.679688,1573.515137 1283.890503,1618.541260 1244.851929,1661.701416 
	C1237.569092,1669.752930 1230.439087,1677.942627 1222.597412,1686.792480 
	C1238.484375,1701.428955 1253.863770,1715.597900 1270.250610,1730.776489 
M222.683182,857.701416 
	C194.699219,878.906067 169.301514,902.648926 150.240051,932.464661 
	C134.644028,956.859741 125.519600,983.110291 128.313828,1012.588684 
	C130.908142,1039.958130 142.574203,1063.572266 158.902328,1085.056274 
	C184.167328,1118.298828 215.943008,1144.378540 250.661346,1167.110352 
	C294.499023,1195.812988 341.424591,1218.453857 389.843750,1238.202759 
	C432.955017,1255.786499 477.151672,1270.174927 521.747192,1283.408569 
	C523.236328,1283.850464 524.905518,1283.685913 526.499634,1283.804688 
	C534.249329,1261.078247 541.813049,1238.779175 549.455566,1216.506958 
	C573.194641,1147.325195 600.721863,1079.659180 631.303650,1013.239441 
	C634.747131,1005.760681 634.937561,999.557800 631.421265,991.905518 
	C592.409851,907.006653 558.311035,820.179077 530.159790,731.053040 
	C529.094849,727.681335 527.840454,724.369568 526.381042,720.189819 
	C505.782928,726.525085 486.051056,732.176208 466.597595,738.662354 
	C423.398865,753.065979 380.938507,769.345093 339.688446,788.774292 
	C298.969238,807.953491 259.890717,829.803650 222.683182,857.701416 
M1749.878540,810.873047 
	C1749.179932,812.737610 1748.468872,814.597656 1747.784424,816.467407 
	C1725.845093,876.406555 1701.975586,935.564941 1674.860962,993.352783 
	C1671.143921,1001.274292 1673.170044,1007.135132 1676.131348,1013.891846 
	C1688.668945,1042.498535 1701.553955,1070.965576 1713.437622,1099.843506 
	C1737.218872,1157.632812 1758.782837,1216.255493 1777.579468,1275.874512 
	C1778.451660,1278.641235 1779.619385,1281.314819 1780.656128,1284.049072 
	C1782.555176,1283.796265 1783.906616,1283.792725 1785.150879,1283.425415 
	C1846.725342,1265.252441 1907.292480,1244.413574 1965.526001,1217.072510 
	C2008.118286,1197.075195 2049.107422,1174.439575 2086.457764,1145.723877 
	C2116.710938,1122.464600 2143.900879,1096.175903 2162.843994,1062.457031 
	C2173.108398,1044.186157 2179.159668,1024.436035 2179.420166,1003.589905 
	C2179.689697,981.999207 2173.413574,961.628845 2162.965332,942.693298 
	C2147.114258,913.966370 2124.614258,890.915527 2099.782227,870.040649 
	C2055.856934,833.115356 2005.922485,806.016663 1953.964966,782.471313 
	C1909.120117,762.149292 1862.908691,745.342346 1815.880127,730.799988 
	C1804.284302,727.214294 1792.574463,723.997559 1780.857422,720.593933 
	C1770.392212,750.976624 1760.338135,780.165710 1749.878540,810.873047 
M725.869080,824.811340 
	C749.728271,783.739502 773.490356,742.610779 797.503174,701.628845 
	C805.188599,688.512451 813.537659,675.784790 821.787720,662.551086 
	C797.817444,662.101257 639.418823,689.899536 624.010010,697.110352 
	C626.917358,717.174622 681.559326,865.062256 693.259827,884.877441 
	C703.959839,865.137512 714.542419,845.614197 725.869080,824.811340 
M1507.571899,1306.587524 
	C1500.295288,1318.303467 1493.018799,1330.019409 1485.424438,1342.247070 
	C1508.294556,1342.584106 1665.231323,1315.751709 1683.939453,1307.935669 
	C1663.725098,1244.368652 1640.890991,1181.741943 1614.158813,1119.198242 
	C1601.942383,1141.888184 1591.075439,1163.206787 1579.175537,1183.932495 
	C1555.844116,1224.567383 1531.937500,1264.871948 1507.571899,1306.587524 
M1118.985840,1462.325562 
	C1108.669678,1462.103149 1098.350952,1461.964966 1088.038208,1461.635010 
	C1077.423218,1461.295532 1066.817627,1460.605469 1056.201294,1460.371826 
	C1046.175781,1460.151123 1036.141602,1460.324341 1024.618774,1460.324341 
	C1065.779175,1514.610840 1107.928589,1565.715820 1153.527466,1615.121216 
	C1199.152100,1565.221313 1241.791138,1514.270386 1281.944946,1460.688110 
	C1227.415283,1461.242676 1174.201782,1461.783813 1118.985840,1462.325562 
M1580.783569,824.141357 
	C1591.655640,844.144287 1602.527710,864.147156 1614.251587,885.717346 
	C1640.810547,822.858948 1663.949219,760.546509 1684.173096,696.058777 
	C1618.346191,681.395386 1552.703613,670.120911 1484.798950,661.742188 
	C1492.095825,673.511353 1498.569458,683.494324 1504.590210,693.743469 
	C1529.839600,736.725281 1554.953369,779.786804 1580.783569,824.141357 
M1025.978394,543.823608 
	C1029.306519,544.373291 1032.619751,545.194580 1035.968018,545.377563 
	C1038.218994,545.500549 1040.512695,544.441650 1042.798706,544.386414 
	C1073.051270,543.655334 1103.304321,542.562988 1133.560181,542.463196 
	C1165.161377,542.358887 1196.768555,543.090210 1228.367554,543.736328 
	C1243.295654,544.041504 1258.208496,545.048340 1273.132812,545.619446 
	C1275.867065,545.724060 1278.623047,545.260681 1282.713379,544.960999 
	C1241.298218,490.704193 1199.148315,439.161804 1153.322754,389.835419 
	C1108.255981,439.340942 1066.054932,489.762848 1025.978394,543.823608 
z"/>
<path fill="#000000" opacity="1.000000" stroke="none" 
	d="
M651.062683,2.000000 
	C654.136536,5.389442 651.218872,5.210132 649.334839,5.806926 
	C638.899292,9.112623 628.256836,11.889099 618.073669,15.846259 
	C577.129456,31.757017 545.091431,58.864143 520.270386,94.832230 
	C494.127899,132.715332 478.951752,175.100708 470.494141,219.887085 
	C466.259125,242.313232 464.290619,265.184723 461.709991,287.901703 
	C458.206726,318.740082 458.625916,349.770111 460.651489,380.587799 
	C462.909332,414.939331 467.055939,449.204102 471.452301,483.368683 
	C477.554718,530.791504 488.066223,577.406982 499.693115,624.769348 
	C494.028442,626.583130 488.494507,628.488037 482.884003,630.131592 
	C404.886810,652.979614 329.072296,681.373413 257.042664,719.304260 
	C211.574585,743.247803 168.625427,771.041931 130.253479,805.376099 
	C97.774254,834.437683 70.098289,867.476196 51.261494,907.167053 
	C37.726032,935.687500 30.209490,965.540100 29.432438,997.439758 
	C28.053890,1054.032227 48.140182,1102.681274 81.465790,1146.936279 
	C109.170021,1183.726196 143.560089,1213.380249 181.114822,1239.545532 
	C242.353821,1282.212036 309.318634,1313.705078 378.841553,1340.102661 
	C415.190430,1353.904053 452.045776,1366.204346 489.497955,1376.690430 
	C492.669373,1377.578247 495.714355,1378.917603 499.535675,1380.308350 
	C497.349792,1389.761353 495.231049,1399.014771 493.069092,1408.258301 
	C480.894379,1460.310303 471.386658,1512.801147 465.512085,1565.980957 
	C461.200195,1605.014526 458.850311,1644.103027 459.743683,1683.332275 
	C460.934998,1735.648682 467.209381,1787.239258 484.180206,1837.080322 
	C496.749451,1873.994263 514.646423,1907.953003 541.344604,1936.674194 
	C569.178955,1966.617554 603.048401,1986.879883 642.544983,1997.674683 
	C644.943848,1998.330322 647.125671,1999.779907 648.704224,2001.429932 
	C432.723785,2002.000000 217.447571,2002.000000 2.085673,2002.000000 
	C2.085673,1335.567261 2.085673,669.134583 2.085673,2.000000 
	C218.041275,2.000000 434.083313,2.000000 651.062683,2.000000 
z"/>
<path fill="#000000" opacity="1.000000" stroke="none" 
	d="
M1658.937256,2002.000000 
	C1656.385620,1998.442139 1659.456055,1998.872314 1661.216553,1998.289917 
	C1671.611938,1994.850220 1682.300293,1992.120605 1692.375977,1987.919067 
	C1738.644775,1968.624512 1772.942749,1935.720337 1797.812866,1892.759888 
	C1820.235596,1854.026855 1832.750854,1811.794067 1839.747437,1767.832764 
	C1843.556030,1743.902588 1846.339233,1719.860229 1846.413330,1695.549805 
	C1846.455933,1681.608276 1848.039185,1667.638062 1847.512451,1653.734497 
	C1846.106934,1616.631470 1843.656006,1579.618286 1838.711426,1542.739014 
	C1833.062500,1500.604980 1825.280273,1458.913086 1816.169189,1417.435425 
	C1813.535522,1405.445679 1810.510742,1393.541870 1807.515015,1380.967896 
	C1809.557861,1379.974365 1811.447876,1378.696777 1813.532959,1378.093018 
	C1871.347656,1361.349121 1928.185669,1341.845581 1983.371216,1317.731934 
	C2029.151245,1297.728027 2073.384033,1274.749268 2115.075195,1247.142578 
	C2142.286133,1229.124146 2168.095215,1209.131348 2191.221680,1186.098145 
	C2220.153809,1157.282837 2244.672363,1125.135498 2260.676270,1087.094727 
	C2274.336914,1054.624023 2280.138916,1020.716370 2277.437500,985.766418 
	C2274.575195,948.733704 2262.179199,914.542603 2242.656006,882.925354 
	C2228.604248,860.169189 2211.984375,839.374023 2193.032959,820.651733 
	C2167.188232,795.119995 2138.536621,772.930786 2107.965576,753.267822 
	C2045.843506,713.311462 1979.141724,682.793579 1909.703491,658.190552 
	C1878.418701,647.105774 1846.548096,637.675110 1814.949951,627.473267 
	C1812.768799,626.769104 1810.643433,625.891968 1807.515015,624.733337 
	C1809.965454,614.081604 1812.400024,603.533508 1814.818481,592.981750 
	C1824.605957,550.278259 1832.899292,507.314606 1838.441650,463.820618 
	C1842.469482,432.212006 1846.019043,400.601135 1846.391846,368.691986 
	C1846.562622,354.082153 1848.018921,339.451569 1847.529419,324.876160 
	C1845.720093,270.990662 1840.213623,217.646225 1822.224976,166.289673 
	C1808.528076,127.185600 1789.129150,91.539757 1759.517334,62.098663 
	C1732.288574,35.026672 1700.092773,16.517651 1662.776123,7.048606 
	C1659.344238,6.177773 1656.107056,4.540199 1653.389648,2.629343 
	C1869.942627,2.000000 2085.885254,2.000000 2301.914062,2.000000 
	C2301.914062,668.432129 2301.914062,1334.864258 2301.914062,2002.000000 
	C2087.958740,2002.000000 1873.916626,2002.000000 1658.937256,2002.000000 
z"/>
<path fill="#000101" opacity="1.000000" stroke="none" 
	d="
M1543.062744,2.000000 
	C1546.085571,5.449407 1543.188843,5.213882 1541.266968,5.688066 
	C1530.317139,8.389594 1519.269775,10.749108 1508.432739,13.844724 
	C1458.535767,28.097818 1412.370239,50.652996 1368.120239,77.408867 
	C1315.331787,109.327553 1266.235962,146.289383 1219.852783,186.844650 
	C1198.845459,205.212494 1178.659790,224.519714 1158.089355,243.387772 
	C1156.640991,244.716354 1155.093506,245.936981 1153.370850,247.395096 
	C1144.957520,239.474350 1136.796143,231.737335 1128.577393,224.061722 
	C1063.014526,162.831848 993.123901,107.331062 914.645996,63.318810 
	C869.808350,38.172852 822.830688,18.275808 772.479126,6.935511 
	C768.442627,6.026403 764.551392,4.472499 761.296326,2.609119 
	C1022.041809,2.000000 1282.083618,2.000000 1543.062744,2.000000 
z"/>
<path fill="#000101" opacity="1.000000" stroke="none" 
	d="
M768.937317,2002.000000 
	C767.960022,2001.047485 767.677490,1999.334717 767.917114,1999.258423 
	C770.744202,1998.355957 773.639038,1997.653564 776.535767,1996.983521 
	C832.834106,1983.960938 884.495422,1959.916748 933.885986,1930.567749 
	C988.951782,1897.846436 1039.902466,1859.461914 1088.039429,1817.321411 
	C1110.041870,1798.059814 1131.489258,1778.163940 1153.852051,1757.956177 
	C1161.130493,1764.728027 1168.906006,1771.815796 1176.520630,1779.072632 
	C1207.107910,1808.222412 1239.226074,1835.597046 1272.568237,1861.521973 
	C1310.428711,1890.959961 1349.891113,1918.052490 1391.856934,1941.368286 
	C1437.393188,1966.667603 1484.794556,1987.257080 1536.017090,1998.157471 
	C1537.847412,1998.547119 1539.487061,1999.832275 1540.607666,2001.350098 
	C1283.291504,2002.000000 1026.583130,2002.000000 768.937317,2002.000000 
z"/>
<path fill="#000101" opacity="1.000000" stroke="none" 
	d="
M867.300903,777.322144 
	C893.868286,735.783630 920.016602,694.844727 946.157410,653.901062 
	C948.157166,650.768860 950.103394,648.382080 954.622559,648.200439 
	C987.143555,646.893066 1019.634949,644.637207 1052.164429,643.805298 
	C1099.411133,642.597046 1146.681885,641.836792 1193.942383,641.837036 
	C1226.521362,641.837219 1259.113770,643.120483 1291.674561,644.453674 
	C1313.214111,645.335693 1334.708374,647.321899 1357.361572,648.892761 
	C1362.578857,656.699341 1368.255615,665.228699 1373.967529,673.734375 
	C1417.950806,739.230408 1458.770264,806.668335 1496.314087,876.029663 
	C1517.834473,915.788147 1537.751221,956.413269 1558.581055,996.548950 
	C1560.812622,1000.848877 1560.819214,1004.136292 1558.599854,1008.484131 
	C1545.140015,1034.851074 1532.651855,1061.731689 1518.629150,1087.789673 
	C1498.467651,1125.255615 1477.609131,1162.358398 1456.435425,1199.264771 
	C1426.122314,1252.101440 1393.108154,1303.264404 1358.986450,1353.713501 
	C1358.443726,1354.515625 1357.692871,1355.177246 1356.416748,1356.596802 
	C1331.484131,1357.824097 1305.973999,1359.212402 1280.450684,1360.293823 
	C1259.863892,1361.166138 1239.265869,1361.933350 1218.664917,1362.276733 
	C1180.058105,1362.920166 1141.445801,1363.537109 1102.835571,1363.545776 
	C1080.906860,1363.550659 1058.967163,1362.569946 1037.052124,1361.591309 
	C1013.846191,1360.554810 990.661865,1359.023926 967.472107,1357.640869 
	C962.519043,1357.345581 957.590210,1356.515869 952.637756,1356.377319 
	C948.301575,1356.255859 947.356323,1352.735718 945.635925,1350.112061 
	C927.935120,1323.118774 909.972046,1296.288452 892.766296,1268.981567 
	C856.765320,1211.845215 822.790527,1153.512451 791.669128,1093.561279 
	C776.346069,1064.043457 761.545715,1034.254150 746.526611,1004.578674 
	C746.234985,1004.002502 746.162720,1003.315247 745.718445,1001.698669 
	C782.293823,925.608704 823.099670,850.964844 867.300903,777.322144 
M981.141479,1105.749878 
	C991.917908,1123.461914 1004.610657,1139.532227 1020.478638,1153.060425 
	C1063.437988,1189.685303 1112.668213,1206.902710 1169.316772,1202.403442 
	C1223.284790,1198.117065 1268.400513,1175.911865 1303.920776,1135.337891 
	C1343.709229,1089.888672 1359.783081,1036.782715 1352.424438,976.599121 
	C1346.934326,931.696899 1328.281494,892.895691 1296.437988,861.364990 
	C1249.731812,815.117676 1193.069824,795.438660 1127.401733,803.667542 
	C1077.870239,809.874390 1036.358276,831.768555 1003.437561,869.200928 
	C965.858765,911.929993 949.248901,961.787903 953.514099,1018.786438 
	C955.820007,1049.600952 965.157043,1077.888672 981.141479,1105.749878 
z"/>
<path fill="#000101" opacity="1.000000" stroke="none" 
	d="
M747.472595,1432.467041 
	C770.329773,1435.656982 792.278076,1439.014038 814.304321,1441.740234 
	C838.964966,1444.792480 863.679016,1447.450562 888.410400,1449.864380 
	C893.807617,1450.391113 896.535706,1453.252441 899.444153,1457.113403 
	C930.047546,1497.739014 959.962036,1538.920410 991.697998,1578.645264 
	C1020.919312,1615.222412 1052.134521,1650.206787 1083.088989,1686.619141 
	C1082.966431,1686.794800 1082.264893,1688.242432 1081.179321,1689.293457 
	C1017.671692,1750.773804 949.982605,1806.911865 873.192139,1851.323242 
	C839.711426,1870.686646 804.742920,1886.757568 767.444763,1897.401367 
	C743.300781,1904.291382 718.684265,1907.949463 693.573303,1906.233643 
	C655.478394,1903.630371 624.985474,1886.926147 602.896851,1855.533569 
	C584.581360,1829.503662 574.575562,1800.027344 568.006958,1769.269165 
	C563.220825,1746.857544 560.112000,1724.189453 559.646179,1701.212280 
	C559.302673,1684.269775 557.631287,1667.266113 558.581116,1650.404053 
	C560.407288,1617.982422 562.754272,1585.533203 566.568420,1553.294434 
	C571.598267,1510.779907 580.227722,1468.829102 590.108948,1427.164917 
	C591.855957,1419.798828 593.773926,1412.473145 595.489746,1405.620850 
	C646.260620,1414.603516 696.429321,1423.479614 747.472595,1432.467041 
z"/>
<path fill="#000101" opacity="1.000000" stroke="none" 
	d="
M594.432556,162.576904 
	C606.895630,141.593826 622.076355,124.393204 643.285217,112.941681 
	C660.304443,103.752327 678.479858,99.199104 697.591187,98.398369 
	C732.071228,96.953728 764.803345,105.322807 796.758301,117.249474 
	C848.574585,136.589081 895.470581,164.895721 940.274597,196.878998 
	C978.469116,224.144226 1014.765747,253.766693 1049.166382,285.698944 
	C1060.851807,296.545929 1072.551025,307.378052 1084.221069,318.195618 
	C1066.789673,338.031281 1049.807739,357.111694 1033.093140,376.423370 
	C989.546753,426.736298 948.859924,479.308899 909.749146,533.117615 
	C906.620300,537.422241 902.951294,541.467346 900.588074,546.163757 
	C897.122681,553.050354 891.494568,555.061279 884.532043,555.684082 
	C809.500366,562.395630 735.002075,572.896790 661.084167,587.440308 
	C640.897156,591.412109 620.763855,595.656921 600.600403,599.749451 
	C599.341431,600.004944 598.034546,600.024536 595.908386,600.238586 
	C594.831970,596.338806 593.699768,592.653015 592.799133,588.911438 
	C579.897888,535.317627 568.962524,481.361786 563.706970,426.408173 
	C562.034119,408.916595 560.627747,391.382507 559.766357,373.835114 
	C558.870300,355.580536 557.833496,337.250397 558.526367,319.016663 
	C560.207764,274.768250 565.119873,230.944534 581.859192,189.374069 
	C585.447754,180.462296 589.999695,171.938461 594.432556,162.576904 
z"/>
<path fill="#000101" opacity="1.000000" stroke="none" 
	d="
M1579.825928,99.681915 
	C1610.813477,95.839958 1639.702759,99.135773 1666.458252,114.438103 
	C1686.345581,125.812233 1700.948730,142.383377 1712.213257,162.066254 
	C1727.928833,189.526382 1736.465088,219.425278 1741.800659,250.363907 
	C1748.667847,290.184692 1749.323608,330.311920 1747.712402,370.567902 
	C1745.036255,437.427307 1733.887329,503.046051 1719.107788,568.141785 
	C1716.697510,578.757324 1713.968384,589.300415 1711.220093,600.559204 
	C1700.779419,598.364136 1691.156372,596.084473 1681.437012,594.341797 
	C1638.685059,586.676208 1596.025513,578.376221 1553.100586,571.826355 
	C1512.183472,565.583008 1470.979736,561.218323 1429.899048,556.051941 
	C1427.924072,555.803650 1425.920044,555.686218 1423.929321,555.684814 
	C1416.110352,555.679260 1410.848511,552.472290 1406.064453,545.749817 
	C1360.568726,481.818756 1312.453003,419.922089 1260.532837,361.039917 
	C1248.236816,347.095123 1235.876709,333.206940 1222.852905,318.510468 
	C1232.564941,309.190125 1242.117676,299.593018 1252.125854,290.496918 
	C1285.334717,260.314301 1319.592773,231.395035 1355.761597,204.769974 
	C1389.837402,179.685577 1425.279663,156.764221 1463.135742,137.841125 
	C1499.814575,119.506561 1537.796631,104.724266 1579.825928,99.681915 
z"/>
<path fill="#000101" opacity="1.000000" stroke="none" 
	d="
M1269.746826,1730.271729 
	C1253.863770,1715.597900 1238.484375,1701.428955 1222.597412,1686.792480 
	C1230.439087,1677.942627 1237.569092,1669.752930 1244.851929,1661.701416 
	C1283.890503,1618.541260 1320.679688,1573.515137 1355.907593,1527.220215 
	C1373.623901,1503.938110 1390.869751,1480.290527 1407.921753,1456.516602 
	C1411.247681,1451.879517 1414.969116,1450.205811 1420.214966,1449.711792 
	C1486.903442,1443.432007 1553.288208,1434.888428 1619.141602,1422.506470 
	C1649.432983,1416.811157 1679.690430,1410.935425 1711.165649,1404.911499 
	C1712.219849,1409.096680 1713.412720,1413.783569 1714.580688,1418.476562 
	C1727.013062,1468.428833 1736.368774,1518.915405 1742.509644,1570.059570 
	C1747.195801,1609.085571 1749.314453,1648.183838 1748.206665,1687.405640 
	C1746.935669,1732.411255 1741.178589,1776.741089 1723.896240,1818.840332 
	C1714.317505,1842.173828 1701.539185,1863.305054 1681.820923,1879.701904 
	C1660.785278,1897.194336 1636.413574,1905.187744 1609.359741,1906.378540 
	C1574.795532,1907.899780 1542.060669,1899.701172 1510.139160,1887.722656 
	C1462.212891,1869.738525 1418.367798,1844.100464 1376.459351,1814.978149 
	C1339.285034,1789.145508 1304.111694,1760.788574 1269.746826,1730.271729 
z"/>
<path fill="#000101" opacity="1.000000" stroke="none" 
	d="
M223.231979,857.239807 
	C259.890717,829.803650 298.969238,807.953491 339.688446,788.774292 
	C380.938507,769.345093 423.398865,753.065979 466.597595,738.662354 
	C486.051056,732.176208 505.782928,726.525085 526.381042,720.189819 
	C527.840454,724.369568 529.094849,727.681335 530.159790,731.053040 
	C558.311035,820.179077 592.409851,907.006653 631.421265,991.905518 
	C634.937561,999.557800 634.747131,1005.760681 631.303650,1013.239441 
	C600.721863,1079.659180 573.194641,1147.325195 549.455566,1216.506958 
	C541.813049,1238.779175 534.249329,1261.078247 526.499634,1283.804688 
	C524.905518,1283.685913 523.236328,1283.850464 521.747192,1283.408569 
	C477.151672,1270.174927 432.955017,1255.786499 389.843750,1238.202759 
	C341.424591,1218.453857 294.499023,1195.812988 250.661346,1167.110352 
	C215.943008,1144.378540 184.167328,1118.298828 158.902328,1085.056274 
	C142.574203,1063.572266 130.908142,1039.958130 128.313828,1012.588684 
	C125.519600,983.110291 134.644028,956.859741 150.240051,932.464661 
	C169.301514,902.648926 194.699219,878.906067 223.231979,857.239807 
z"/>
<path fill="#000101" opacity="1.000000" stroke="none" 
	d="
M1750.081299,810.113953 
	C1760.338135,780.165710 1770.392212,750.976624 1780.857422,720.593933 
	C1792.574463,723.997559 1804.284302,727.214294 1815.880127,730.799988 
	C1862.908691,745.342346 1909.120117,762.149292 1953.964966,782.471313 
	C2005.922485,806.016663 2055.856934,833.115356 2099.782227,870.040649 
	C2124.614258,890.915527 2147.114258,913.966370 2162.965332,942.693298 
	C2173.413574,961.628845 2179.689697,981.999207 2179.420166,1003.589905 
	C2179.159668,1024.436035 2173.108398,1044.186157 2162.843994,1062.457031 
	C2143.900879,1096.175903 2116.710938,1122.464600 2086.457764,1145.723877 
	C2049.107422,1174.439575 2008.118286,1197.075195 1965.526001,1217.072510 
	C1907.292480,1244.413574 1846.725342,1265.252441 1785.150879,1283.425415 
	C1783.906616,1283.792725 1782.555176,1283.796265 1780.656128,1284.049072 
	C1779.619385,1281.314819 1778.451660,1278.641235 1777.579468,1275.874512 
	C1758.782837,1216.255493 1737.218872,1157.632812 1713.437622,1099.843506 
	C1701.553955,1070.965576 1688.668945,1042.498535 1676.131348,1013.891846 
	C1673.170044,1007.135132 1671.143921,1001.274292 1674.860962,993.352783 
	C1701.975586,935.564941 1725.845093,876.406555 1747.784424,816.467407 
	C1748.468872,814.597656 1749.179932,812.737610 1750.081299,810.113953 
z"/>
<path fill="#010202" opacity="1.000000" stroke="none" 
	d="
M725.497070,825.451111 
	C714.542419,845.614197 703.959839,865.137512 693.259827,884.877441 
	C681.559326,865.062256 626.917358,717.174622 624.010010,697.110352 
	C639.418823,689.899536 797.817444,662.101257 821.787720,662.551086 
	C813.537659,675.784790 805.188599,688.512451 797.503174,701.628845 
	C773.490356,742.610779 749.728271,783.739502 725.497070,825.451111 
z"/>
<path fill="#010202" opacity="1.000000" stroke="none" 
	d="
M1507.920410,1305.950439 
	C1531.937500,1264.871948 1555.844116,1224.567383 1579.175537,1183.932495 
	C1591.075439,1163.206787 1601.942383,1141.888184 1614.158813,1119.198242 
	C1640.890991,1181.741943 1663.725098,1244.368652 1683.939453,1307.935669 
	C1665.231323,1315.751709 1508.294556,1342.584106 1485.424438,1342.247070 
	C1493.018799,1330.019409 1500.295288,1318.303467 1507.920410,1305.950439 
z"/>
<path fill="#010202" opacity="1.000000" stroke="none" 
	d="
M1119.987061,1462.325195 
	C1174.201782,1461.783813 1227.415283,1461.242676 1281.944946,1460.688110 
	C1241.791138,1514.270386 1199.152100,1565.221313 1153.527466,1615.121216 
	C1107.928589,1565.715820 1065.779175,1514.610840 1024.618774,1460.324341 
	C1036.141602,1460.324341 1046.175781,1460.151123 1056.201294,1460.371826 
	C1066.817627,1460.605469 1077.423218,1461.295532 1088.038208,1461.635010 
	C1098.350952,1461.964966 1108.669678,1462.103149 1119.987061,1462.325195 
z"/>
<path fill="#010202" opacity="1.000000" stroke="none" 
	d="
M1580.450195,823.480286 
	C1554.953369,779.786804 1529.839600,736.725281 1504.590210,693.743469 
	C1498.569458,683.494324 1492.095825,673.511353 1484.798950,661.742188 
	C1552.703613,670.120911 1618.346191,681.395386 1684.173096,696.058777 
	C1663.949219,760.546509 1640.810547,822.858948 1614.251587,885.717346 
	C1602.527710,864.147156 1591.655640,844.144287 1580.450195,823.480286 
z"/>
<path fill="#010202" opacity="1.000000" stroke="none" 
	d="
M819.936829,1342.070068 
	C806.444397,1340.598389 792.845093,1339.766724 779.479370,1337.535889 
	C737.939026,1330.602783 696.472717,1323.220337 655.011536,1315.822510 
	C644.625427,1313.969482 634.366211,1311.404785 622.855225,1308.908325 
	C643.035950,1244.451538 666.267395,1182.018311 692.832336,1118.874756 
	C732.729492,1195.171265 774.824097,1268.486816 820.301697,1340.723633 
	C820.324280,1341.602905 819.936829,1342.070068 819.936829,1342.070068 
z"/>
<path fill="#010202" opacity="1.000000" stroke="none" 
	d="
M1026.194458,543.073242 
	C1066.054932,489.762848 1108.255981,439.340942 1153.322754,389.835419 
	C1199.148315,439.161804 1241.298218,490.704193 1282.713379,544.960999 
	C1278.623047,545.260681 1275.867065,545.724060 1273.132812,545.619446 
	C1258.208496,545.048340 1243.295654,544.041504 1228.367554,543.736328 
	C1196.768555,543.090210 1165.161377,542.358887 1133.560181,542.463196 
	C1103.304321,542.562988 1073.051270,543.655334 1042.798706,544.386414 
	C1040.512695,544.441650 1038.218994,545.500549 1035.968018,545.377563 
	C1032.619751,545.194580 1029.306519,544.373291 1026.194458,543.073242 
z"/>
<path fill="#010202" opacity="1.000000" stroke="none" 
	d="
M820.516968,1341.368408 
	C820.503967,1341.734619 820.298401,1342.335327 820.014771,1342.503052 
	C819.936829,1342.070068 820.324280,1341.602905 820.516968,1341.368408 
z"/>
<path fill="#61D9FA" opacity="1.000000" stroke="none" 
	d="
M980.755859,1105.123047 
	C965.157043,1077.888672 955.820007,1049.600952 953.514099,1018.786438 
	C949.248901,961.787903 965.858765,911.929993 1003.437561,869.200928 
	C1036.358276,831.768555 1077.870239,809.874390 1127.401733,803.667542 
	C1193.069824,795.438660 1249.731812,815.117676 1296.437988,861.364990 
	C1328.281494,892.895691 1346.934326,931.696899 1352.424438,976.599121 
	C1359.783081,1036.782715 1343.709229,1089.888672 1303.920776,1135.337891 
	C1268.400513,1175.911865 1223.284790,1198.117065 1169.316772,1202.403442 
	C1112.668213,1206.902710 1063.437988,1189.685303 1020.478638,1153.060425 
	C1004.610657,1139.532227 991.917908,1123.461914 980.755859,1105.123047 
z"/>
</svg>